<svg width="490" height="490" viewBox="0 0 490 490" fill="none" xmlns="http://www.w3.org/2000/svg">
<path d="M449.568 325.82C429.99 366.068 395.361 407.837 353.359 415.982C289.903 428.298 275.318 482.382 167.197 462.804C150.343 459.75 135.009 454.99 121.184 448.796C113.751 445.471 106.734 441.705 100.159 437.584C40.4439 400.194 15.7629 332.076 21.8718 265.062C29.8944 176.913 89.8671 142.369 128.471 122.607C167.087 102.845 222.312 13.7144 328.764 32.0166C344.993 34.8134 360.94 39.4871 376.065 46.3933C410.609 62.1317 443.987 91.2287 460.547 129.477C461.786 132.347 462.952 135.279 464.043 138.248C485.277 196.294 476.273 270.951 449.568 325.82Z" fill="#92E3A9"/>
<path opacity="0.8" d="M449.568 325.82C429.99 366.068 395.361 407.837 353.359 415.982C289.903 428.298 275.318 482.382 167.197 462.804C150.343 459.75 135.009 454.99 121.184 448.796C113.751 445.471 106.734 441.705 100.159 437.584C40.4439 400.194 15.7629 332.076 21.8718 265.062C29.8944 176.913 89.8671 142.369 128.471 122.607C167.087 102.845 222.312 13.7144 328.764 32.0166C344.993 34.8134 360.94 39.4871 376.065 46.3933C410.609 62.1317 443.987 91.2287 460.547 129.477C461.786 132.347 462.952 135.279 464.043 138.248C485.277 196.294 476.273 270.951 449.568 325.82Z" fill="white"/>
<path d="M365.835 276.888C370.889 276.888 374.986 272.791 374.986 267.737C374.986 262.683 370.889 258.586 365.835 258.586C360.781 258.586 356.684 262.683 356.684 267.737C356.684 272.791 360.781 276.888 365.835 276.888Z" fill="#92E3A9"/>
<path d="M384.652 324.802C389.706 324.802 393.803 320.705 393.803 315.651C393.803 310.597 389.706 306.5 384.652 306.5C379.598 306.5 375.501 310.597 375.501 315.651C375.501 320.705 379.598 324.802 384.652 324.802Z" fill="#92E3A9"/>
<path d="M354.868 398.391C359.922 398.391 364.019 394.294 364.019 389.24C364.019 384.186 359.922 380.089 354.868 380.089C349.814 380.089 345.717 384.186 345.717 389.24C345.717 394.294 349.814 398.391 354.868 398.391Z" fill="#92E3A9"/>
<path d="M422.962 352.746C428.016 352.746 432.113 348.649 432.113 343.595C432.113 338.541 428.016 334.444 422.962 334.444C417.908 334.444 413.81 338.541 413.81 343.595C413.81 348.649 417.908 352.746 422.962 352.746Z" fill="#92E3A9"/>
<path opacity="0.15" d="M417.441 239.645C421.771 239.645 425.28 236.136 425.28 231.807C425.28 227.478 421.771 223.968 417.441 223.968C413.112 223.968 409.603 227.478 409.603 231.807C409.603 236.136 413.112 239.645 417.441 239.645Z" fill="black"/>
<path opacity="0.15" d="M165.909 338.651C170.238 338.651 173.748 335.142 173.748 330.813C173.748 326.484 170.238 322.974 165.909 322.974C161.58 322.974 158.071 326.484 158.071 330.813C158.071 335.142 161.58 338.651 165.909 338.651Z" fill="black"/>
<path d="M403.764 276.961C409.922 276.961 414.914 271.969 414.914 265.811C414.914 259.652 409.922 254.66 403.764 254.66C397.606 254.66 392.613 259.652 392.613 265.811C392.613 271.969 397.606 276.961 403.764 276.961Z" fill="#92E3A9"/>
<path d="M314.095 302.95C315.444 296.941 311.666 290.977 305.657 289.628C299.649 288.279 293.684 292.057 292.336 298.066C290.987 304.074 294.765 310.038 300.773 311.387C306.782 312.736 312.746 308.958 314.095 302.95Z" fill="#92E3A9"/>
<path d="M66.9161 330.488C68.3935 324.509 64.7446 318.465 58.7662 316.988C52.7877 315.51 46.7435 319.159 45.2662 325.138C43.7888 331.116 47.4376 337.16 53.4161 338.638C59.3946 340.115 65.4387 336.466 66.9161 330.488Z" fill="#92E3A9"/>
<path d="M110.225 367.4C114.58 363.046 114.58 355.986 110.225 351.631C105.871 347.277 98.8108 347.277 94.4563 351.631C90.1018 355.986 90.1018 363.046 94.4563 367.4C98.8108 371.755 105.871 371.755 110.225 367.4Z" fill="#92E3A9"/>
<path d="M110.238 420.205C111.654 414.212 107.942 408.206 101.949 406.791C95.9558 405.376 89.9501 409.087 88.5349 415.08C87.1197 421.073 90.831 427.079 96.8242 428.494C102.818 429.909 108.823 426.198 110.238 420.205Z" fill="#92E3A9"/>
<path opacity="0.15" d="M192.712 310.855C197.042 310.855 200.551 307.345 200.551 303.016C200.551 298.687 197.042 295.178 192.712 295.178C188.383 295.178 184.874 298.687 184.874 303.016C184.874 307.345 188.383 310.855 192.712 310.855Z" fill="black"/>
<path opacity="0.15" d="M215.142 359.874C215.838 355.601 212.937 351.574 208.664 350.878C204.392 350.183 200.364 353.083 199.669 357.356C198.974 361.629 201.874 365.656 206.147 366.352C210.42 367.047 214.447 364.147 215.142 359.874Z" fill="black"/>
<path opacity="0.15" d="M116.069 393.079C120.398 393.079 123.908 389.57 123.908 385.241C123.908 380.912 120.398 377.402 116.069 377.402C111.74 377.402 108.231 380.912 108.231 385.241C108.231 389.57 111.74 393.079 116.069 393.079Z" fill="black"/>
<path d="M128.436 352.067C132.436 350.41 134.335 345.825 132.679 341.825C131.022 337.825 126.436 335.926 122.437 337.583C118.437 339.24 116.538 343.825 118.195 347.825C119.851 351.824 124.437 353.724 128.436 352.067Z" fill="#92E3A9"/>
<path opacity="0.15" d="M408.06 359.682C409.05 355.468 406.438 351.249 402.224 350.258C398.01 349.267 393.79 351.88 392.799 356.094C391.808 360.307 394.421 364.527 398.635 365.518C402.849 366.509 407.069 363.896 408.06 359.682Z" fill="black"/>
<path opacity="0.15" d="M83.2003 346.672C84.4549 342.528 82.1131 338.152 77.9697 336.898C73.8263 335.643 69.4504 337.985 68.1958 342.128C66.9412 346.272 69.2831 350.648 73.4265 351.902C77.5698 353.157 81.9458 350.815 83.2003 346.672Z" fill="black"/>
<path d="M421.609 314.372C428.244 307.737 428.244 296.98 421.609 290.345C414.974 283.71 404.217 283.71 397.582 290.345C390.947 296.98 390.947 307.737 397.582 314.372C404.217 321.006 414.974 321.006 421.609 314.372Z" fill="#92E3A9"/>
<path d="M444.882 294.515C452.098 294.515 457.947 288.666 457.947 281.451C457.947 274.236 452.098 268.387 444.882 268.387C437.667 268.387 431.818 274.236 431.818 281.451C431.818 288.666 437.667 294.515 444.882 294.515Z" fill="#92E3A9"/>
<path d="M378.617 370.361C385.832 370.361 391.681 364.512 391.681 357.297C391.681 350.082 385.832 344.233 378.617 344.233C371.402 344.233 365.553 350.082 365.553 357.297C365.553 364.512 371.402 370.361 378.617 370.361Z" fill="#92E3A9"/>
<path d="M297.754 347.287C304.969 347.287 310.818 341.438 310.818 334.223C310.818 327.008 304.969 321.159 297.754 321.159C290.538 321.159 284.689 327.008 284.689 334.223C284.689 341.438 290.538 347.287 297.754 347.287Z" fill="#92E3A9"/>
<path opacity="0.15" d="M174.627 387.215C176.756 378.077 171.074 368.943 161.936 366.814C152.798 364.685 143.664 370.367 141.535 379.505C139.406 388.644 145.088 397.777 154.226 399.906C163.364 402.035 172.498 396.353 174.627 387.215Z" fill="black"/>
<path opacity="0.15" d="M192.065 373.694C194.139 364.543 188.401 355.443 179.25 353.37C170.098 351.296 160.999 357.034 158.925 366.185C156.851 375.336 162.589 384.436 171.74 386.51C180.892 388.583 189.991 382.846 192.065 373.694Z" fill="black"/>
<path opacity="0.15" d="M422.962 327.476C429.052 327.476 433.989 322.539 433.989 316.448C433.989 310.358 429.052 305.42 422.962 305.42C416.871 305.42 411.934 310.358 411.934 316.448C411.934 322.539 416.871 327.476 422.962 327.476Z" fill="black"/>
<path opacity="0.15" d="M363.087 306.721C369.177 306.721 374.115 301.783 374.115 295.693C374.115 289.602 369.177 284.665 363.087 284.665C356.996 284.665 352.059 289.602 352.059 295.693C352.059 301.783 356.996 306.721 363.087 306.721Z" fill="black"/>
<path opacity="0.15" d="M213.002 451.212C219.092 451.212 224.03 446.275 224.03 440.184C224.03 434.094 219.092 429.156 213.002 429.156C206.911 429.156 201.974 434.094 201.974 440.184C201.974 446.275 206.911 451.212 213.002 451.212Z" fill="black"/>
<path opacity="0.15" d="M135.561 443.239C141.652 443.239 146.589 438.301 146.589 432.211C146.589 426.12 141.652 421.183 135.561 421.183C129.471 421.183 124.533 426.12 124.533 432.211C124.533 438.301 129.471 443.239 135.561 443.239Z" fill="black"/>
<path d="M193.363 340.246C196.249 340.246 198.588 337.906 198.588 335.02C198.588 332.134 196.249 329.795 193.363 329.795C190.477 329.795 188.137 332.134 188.137 335.02C188.137 337.906 190.477 340.246 193.363 340.246Z" fill="#92E3A9"/>
<path d="M163.505 316.878C166.391 316.878 168.731 314.538 168.731 311.652C168.731 308.766 166.391 306.426 163.505 306.426C160.619 306.426 158.279 308.766 158.279 311.652C158.279 314.538 160.619 316.878 163.505 316.878Z" fill="#92E3A9"/>
<path d="M242.982 447.373C242.982 450.255 240.639 452.598 237.756 452.598C234.874 452.598 232.531 450.255 232.531 447.373C232.531 444.49 234.874 442.147 237.756 442.147C240.639 442.147 242.982 444.49 242.982 447.373Z" fill="#92E3A9"/>
<path d="M314.4 389.534C317.286 389.534 319.625 387.195 319.625 384.309C319.625 381.423 317.286 379.083 314.4 379.083C311.514 379.083 309.174 381.423 309.174 384.309C309.174 387.195 311.514 389.534 314.4 389.534Z" fill="#92E3A9"/>
<path d="M219.237 405.842C220.475 400.572 217.207 395.297 211.937 394.059C206.667 392.821 201.392 396.089 200.154 401.359C198.916 406.628 202.184 411.904 207.454 413.142C212.724 414.38 217.999 411.111 219.237 405.842Z" fill="#92E3A9"/>
<path d="M175.912 420.921C179.739 417.093 179.739 410.888 175.912 407.06C172.084 403.233 165.879 403.233 162.051 407.06C158.223 410.888 158.223 417.093 162.051 420.921C165.879 424.749 172.084 424.749 175.912 420.921Z" fill="#92E3A9"/>
<path d="M66.489 377.747C69.9209 373.561 69.3096 367.386 65.1237 363.954C60.9377 360.522 54.7623 361.133 51.3304 365.319C47.8985 369.505 48.5098 375.681 52.6957 379.113C56.8816 382.545 63.0571 381.933 66.489 377.747Z" fill="#92E3A9"/>
<path opacity="0.15" d="M309.504 326.447C314.5 324.362 316.86 318.623 314.775 313.627C312.69 308.631 306.951 306.271 301.955 308.356C296.959 310.44 294.599 316.18 296.684 321.176C298.768 326.172 304.508 328.532 309.504 326.447Z" fill="black"/>
<path opacity="0.15" d="M384.269 385.645C388.543 382.324 389.315 376.166 385.994 371.892C382.672 367.618 376.515 366.846 372.24 370.167C367.966 373.488 367.194 379.646 370.515 383.92C373.837 388.194 379.994 388.967 384.269 385.645Z" fill="black"/>
<path d="M245.632 428.445C247.8 428.445 249.557 426.687 249.557 424.519C249.557 422.351 247.8 420.594 245.632 420.594C243.464 420.594 241.706 422.351 241.706 424.519C241.706 426.687 243.464 428.445 245.632 428.445Z" fill="#92E3A9"/>
<path d="M158.353 353.887C162.519 353.887 165.897 350.509 165.897 346.343C165.897 342.176 162.519 338.799 158.353 338.799C154.186 338.799 150.809 342.176 150.809 346.343C150.809 350.509 154.186 353.887 158.353 353.887Z" fill="#92E3A9"/>
<path d="M167.357 450.562C167.357 452.721 165.603 454.487 163.431 454.487C161.272 454.487 159.506 452.733 159.506 450.562C159.506 448.403 161.26 446.637 163.431 446.637C165.603 446.649 167.357 448.403 167.357 450.562Z" fill="#92E3A9"/>
<path opacity="0.15" d="M92.2709 387.441C94.5097 377.96 88.6386 368.459 79.1575 366.22C69.6764 363.981 60.1757 369.852 57.9369 379.333C55.6982 388.815 61.5692 398.315 71.0503 400.554C80.5314 402.793 90.0322 396.922 92.2709 387.441Z" fill="black"/>
<path d="M127.71 414.08C129.336 414.08 130.654 412.762 130.654 411.136C130.654 409.51 129.336 408.192 127.71 408.192C126.084 408.192 124.766 409.51 124.766 411.136C124.766 412.762 126.084 414.08 127.71 414.08Z" fill="#92E3A9"/>
<path d="M180.605 284.395C146.025 286.934 143.964 288.995 141.425 323.575C138.885 288.995 136.825 286.934 102.244 284.395C136.825 281.856 138.885 279.795 141.425 245.215C143.964 279.795 146.025 281.856 180.605 284.395Z" fill="white" stroke="#263238" stroke-width="0.5" stroke-miterlimit="10"/>
<path d="M228.949 425.501C194.368 428.04 192.308 430.101 189.768 464.681C187.229 430.101 185.168 428.04 150.588 425.501C185.168 422.962 187.229 420.901 189.768 386.32C192.308 420.913 194.368 422.962 228.949 425.501Z" fill="white" stroke="#263238" stroke-width="0.5" stroke-miterlimit="10"/>
<path d="M341.669 273.612C328.409 274.582 327.611 275.379 326.642 288.639C325.673 275.379 324.876 274.582 311.615 273.612C324.876 272.643 325.673 271.846 326.642 258.586C327.611 271.846 328.396 272.643 341.669 273.612Z" fill="white" stroke="#263238" stroke-width="0.5" stroke-miterlimit="10"/>
<path d="M356.034 264.474C342.773 265.443 341.976 266.24 341.007 279.501C340.038 266.24 339.24 265.443 325.98 264.474C339.24 263.505 340.038 262.707 341.007 249.447C341.988 262.707 342.773 263.492 356.034 264.474Z" fill="white" stroke="#263238" stroke-width="0.5" stroke-miterlimit="10"/>
<path d="M360.609 373.563C347.349 374.532 346.551 375.329 345.582 388.59C344.613 375.329 343.816 374.532 330.555 373.563C343.816 372.594 344.613 371.796 345.582 358.536C346.551 371.809 347.349 372.594 360.609 373.563Z" fill="white" stroke="#263238" stroke-width="0.5" stroke-miterlimit="10"/>
<path d="M133.267 306.61C111.064 308.242 109.739 309.567 108.12 331.757C106.489 309.554 105.164 308.23 82.9731 306.61C105.176 304.979 106.501 303.654 108.12 281.463C109.739 303.654 111.064 304.979 133.267 306.61Z" fill="white" stroke="#263238" stroke-width="0.5" stroke-miterlimit="10"/>
<path d="M380.53 153.409C358.327 155.041 357.003 156.366 355.383 178.556C353.752 156.353 352.427 155.029 330.236 153.409C352.439 151.778 353.764 150.453 355.383 128.262C357.015 150.453 358.34 151.778 380.53 153.409Z" fill="white" stroke="#263238" stroke-width="0.5" stroke-miterlimit="10"/>
<path d="M76.8887 250.183C54.6857 251.814 53.3609 253.139 51.7416 275.33C50.1101 253.127 48.7853 251.802 26.5946 250.183C48.7976 248.551 50.1224 247.226 51.7416 225.036C53.3731 247.239 54.698 248.551 76.8887 250.183Z" fill="white" stroke="#263238" stroke-width="0.5" stroke-miterlimit="10"/>
<path d="M475.267 265.357C453.064 266.988 451.74 268.313 450.12 290.504C448.489 268.301 447.164 266.976 424.973 265.357C447.176 263.725 448.501 262.401 450.12 240.21C451.74 262.401 453.064 263.725 475.267 265.357Z" fill="white" stroke="#263238" stroke-width="0.5" stroke-miterlimit="10"/>
<path d="M153.618 67.9462C173.576 67.9462 189.977 74.6316 191.829 83.1816C191.94 82.6541 192.013 82.1021 192.013 81.5624C192.013 72.2518 174.827 64.7077 153.618 64.7077C132.409 64.7077 115.223 72.2518 115.223 81.5624C115.223 82.1144 115.284 82.6541 115.407 83.1816C117.259 74.6316 133.647 67.9462 153.618 67.9462Z" fill="#92E3A9" stroke="#263238" stroke-miterlimit="10"/>
<path d="M153.618 98.417C133.66 98.417 117.259 91.7316 115.407 83.1816C115.296 83.7091 115.223 84.2611 115.223 84.8008C115.223 94.1114 132.409 101.655 153.618 101.655C174.827 101.655 192.013 94.1114 192.013 84.8008C192.013 84.2488 191.952 83.7091 191.829 83.1816C189.965 91.7316 173.576 98.417 153.618 98.417Z" fill="#92E3A9" stroke="#263238" stroke-miterlimit="10"/>
<path d="M115.223 84.8008C115.223 84.8008 115.137 93.7924 121.037 107.421C126.938 121.049 131.942 138.309 131.942 142.86C131.942 147.399 131.035 150.588 131.035 150.588L139.217 148.319L147.399 152.404L155.581 147.411L161.481 150.588L169.663 146.049L176.937 151.95L183.292 146.049C183.292 146.049 177.845 131.059 181.476 121.516C185.107 111.972 188.125 97.5706 191.842 83.1938" stroke="#263238" stroke-miterlimit="10" stroke-linecap="round" stroke-linejoin="round"/>
<path d="M183.279 146.037C183.279 146.037 173.736 133.77 166.928 127.87C160.107 121.969 153.299 115.149 152.391 113.787C151.484 112.426 136.493 95.1663 133.77 91.0692C131.047 86.9843 124.227 73.3558 124.227 73.3558C124.227 73.3558 140.578 129.685 131.047 150.588" stroke="#263238" stroke-miterlimit="10" stroke-linecap="round" stroke-linejoin="round"/>
<path d="M131.942 140.591L139.217 148.319C139.217 148.319 142.394 141.044 142.394 131.967C142.394 122.877 142.394 108.341 142.394 101.079C142.394 93.8047 144.663 67.0016 144.663 67.0016C144.663 67.0016 161.015 99.7173 164.204 106.979C167.381 114.254 171.025 117.431 173.748 120.608C176.471 123.785 180.102 128.79 180.102 128.79" stroke="#263238" stroke-miterlimit="10" stroke-linecap="round" stroke-linejoin="round"/>
<path d="M147.386 152.404C147.386 152.404 150.11 133.329 152.379 125.6C154.648 117.872 155.556 111.972 160.107 98.3434C164.646 84.715 167.381 69.7249 167.381 69.7249C167.381 69.7249 176.925 96.528 178.287 102.441C179.648 108.341 183.279 115.161 183.279 115.161" stroke="#263238" stroke-miterlimit="10" stroke-linecap="round" stroke-linejoin="round"/>
<path d="M184.641 74.7175C184.641 74.7175 176.913 93.3386 173.282 104.698C169.651 116.057 163.738 128.778 161.015 135.132C158.292 141.486 155.568 147.399 155.568 147.399C155.568 147.399 151.484 141.498 142.848 136.493C134.212 131.501 127.858 123.773 126.95 122.411" stroke="#263238" stroke-miterlimit="10" stroke-linecap="round" stroke-linejoin="round"/>
<path d="M187.364 101.974C187.364 101.974 173.282 125.6 171.466 132.862C169.651 140.137 169.651 146.037 169.651 146.037C169.651 146.037 148.294 129.231 140.124 123.773C131.942 118.326 121.049 107.421 121.049 107.421" stroke="#263238" stroke-miterlimit="10" stroke-linecap="round" stroke-linejoin="round"/>
<path d="M115.394 83.1816C115.394 83.1816 124.668 103.79 126.938 108.783C129.207 113.775 133.292 118.326 133.292 118.326" stroke="#263238" stroke-miterlimit="10" stroke-linecap="round" stroke-linejoin="round"/>
<path d="M32.5931 50.1838L32.8016 96.5525L225.723 37.5489" stroke="#263238" stroke-miterlimit="10" stroke-linecap="round" stroke-linejoin="round"/>
<path d="M231.341 45.9762L43.1058 99.3616L32.8016 96.5525L232.568 35.3899" fill="white"/>
<path d="M231.341 45.9762L43.1058 99.3616L32.8016 96.5525L232.568 35.3899" stroke="#263238" stroke-miterlimit="10" stroke-linecap="round" stroke-linejoin="round"/>
<path d="M53.9129 74.374V52.7352" stroke="#263238" stroke-miterlimit="10" stroke-linecap="round" stroke-linejoin="round"/>
<path d="M45.645 45.7309L45.8658 77.7106L216.338 26.3002" stroke="#263238" stroke-miterlimit="10" stroke-linecap="round" stroke-linejoin="round"/>
<path d="M56.3663 48.0984L98.9077 73.3927L128.692 64.4133V52.588L90.4068 23.0494" fill="white"/>
<path d="M56.3663 48.0984L98.9077 73.3927L128.692 64.4133V52.588L90.4068 23.0494" stroke="#263238" stroke-miterlimit="10" stroke-linecap="round" stroke-linejoin="round"/>
<path d="M128.692 64.4133L73.1473 27.5391" stroke="#263238" stroke-miterlimit="10" stroke-linecap="round" stroke-linejoin="round"/>
<path d="M331.366 75.8466C340.721 66.4908 340.721 51.3221 331.366 41.9663C322.01 32.6105 306.841 32.6105 297.485 41.9663C288.13 51.3221 288.13 66.4908 297.485 75.8466C306.841 85.2023 322.01 85.2023 331.366 75.8466Z" fill="#92E3A9" stroke="#263238" stroke-miterlimit="10"/>
<path d="M335.376 47.2888C338.639 53.1769 331.905 63.1498 320.325 69.5654C308.757 75.981 296.723 76.4103 293.46 70.5222C290.197 64.6341 296.932 54.6612 308.512 48.2456C320.092 41.83 332.113 41.4007 335.376 47.2888Z" stroke="#263238" stroke-miterlimit="10"/>
<path d="M249.25 183.414L282.138 134.089C282.138 134.089 289.596 118.522 294.859 112.61C300.121 106.685 324.679 86.9598 324.679 86.9598L326.875 82.5805C326.875 82.5805 327.746 76.4471 326.434 74.2513C325.121 72.0556 328.188 70.3014 329.942 71.6262C331.696 72.9388 331.696 74.0428 331.696 74.0428C331.696 74.0428 336.075 70.3137 337.179 64.8304C338.271 59.3471 336.738 56.0596 336.308 54.0846C335.867 52.1097 335.217 49.9139 336.529 49.9139C337.842 49.9139 339.817 54.7348 340.479 56.4889C341.142 58.2431 341.35 63.5056 341.571 67.0139C341.792 70.5222 341.129 73.1473 340.479 76.2263C339.817 79.293 337.633 84.9971 336.1 87.4014C334.567 89.818 326.017 101.656 324.042 106.035C322.067 110.414 317.687 120.51 315.271 123.576C312.854 126.643 301.9 137.831 301.237 138.922C300.575 140.014 300.367 140.456 299.042 142.21C297.729 143.964 295.754 147.914 295.754 147.914L284.137 187.818L249.25 183.414Z" fill="#969696" stroke="#263238" stroke-miterlimit="10"/>
<path d="M326.863 82.5683C326.863 82.5683 326.519 86.2484 327.967 87.5609C329.414 88.8735 330.727 89.266 333.095 86.8985" stroke="#263238" stroke-miterlimit="10"/>
<path d="M331.684 74.006C331.684 74.006 331.377 75.8583 332.702 75.7233" stroke="#263238" stroke-miterlimit="10"/>
<path d="M268.792 138.309C268.792 138.309 261.763 141.609 261.198 143.044C260.622 144.479 260.622 145.767 260.622 145.767C260.622 145.767 252.734 149.778 252.158 151.214C251.581 152.649 252.869 154.513 252.869 154.513C252.869 154.513 250.575 157.96 249.14 166.13C247.705 174.3 250.428 173.871 252.44 173.871C254.452 173.871 255.445 173.871 255.445 173.871L254.292 179.894C254.292 179.894 257.298 179.746 263.615 180.041C269.92 180.323 285.548 186.775 285.548 186.775C285.548 186.775 285.83 175.306 286.701 174.018C287.56 172.73 295.3 169.148 297.165 165.701C299.029 162.254 301.323 153.655 296.883 146.491C292.442 139.327 281.255 136.739 276.385 136.604C271.515 136.444 268.792 138.309 268.792 138.309Z" fill="#B5B5B5" stroke="#263238" stroke-miterlimit="10"/>
<path d="M263.345 143.768C263.345 143.768 268.939 141.327 270.656 145.632" stroke="#263238" stroke-miterlimit="10"/>
<path d="M266.216 147.485C265.86 148.454 265.062 149.042 264.425 148.809C263.799 148.576 263.566 147.607 263.934 146.638C264.29 145.669 265.087 145.08 265.725 145.313C266.35 145.546 266.571 146.528 266.216 147.485Z" fill="#263238"/>
<path d="M252.023 161.69C252.023 161.69 256.463 161.972 259.481 159.114" stroke="#263238" stroke-miterlimit="10"/>
<path d="M297.189 165.701C299.054 162.254 301.348 153.655 296.907 146.491C292.467 139.327 281.279 136.739 276.409 136.604C276.103 136.592 275.82 136.592 275.526 136.604C277.072 137.119 280.053 138.444 281.709 141.339C284.002 145.35 277.403 143.633 277.268 146.074C277.121 148.515 281.426 154.109 281.144 154.967C280.862 155.826 278.703 156.55 279.427 157.261C280.138 157.973 282.15 157.838 283.733 158.844C285.315 159.85 280.151 167.59 281.292 169.307C282.212 170.681 283.953 172.877 287.327 173.49C289.339 171.871 295.546 168.731 297.189 165.701Z" fill="#263238" stroke="#263238" stroke-miterlimit="10"/>
<path d="M280.838 159.249C280.838 159.249 285.843 158.5 287.008 160.831C288.296 163.407 286.861 167.713 282.567 168.142C278.262 168.571 274.974 167.283 275.256 164.989" fill="#B5B5B5"/>
<path d="M280.838 159.249C280.838 159.249 285.843 158.5 287.008 160.831C288.296 163.407 286.861 167.713 282.567 168.142C278.262 168.571 274.974 167.283 275.256 164.989" stroke="#263238" stroke-miterlimit="10"/>
<path d="M283.23 200.073C283.23 200.073 282.138 206.648 277.305 209.064" stroke="#263238" stroke-miterlimit="10"/>
<path d="M280.298 395.3C280.298 395.3 306.647 370.251 315.774 362.952C324.9 355.653 327.513 352.255 327.513 352.255L315.774 341.301C315.774 341.301 292.295 356.168 286.554 358.524C280.813 360.867 270.644 365.565 270.644 365.565C270.644 365.565 265.688 371.306 264.388 381.475C263.087 391.644 264.645 393.472 267.516 394.785C270.386 396.085 280.298 395.3 280.298 395.3Z" fill="#969696" stroke="#263238" stroke-miterlimit="10"/>
<path d="M310.56 344.172C310.56 344.172 320.214 356.696 321.515 356.696C322.815 356.696 327.255 354.083 327.255 354.083C327.255 354.083 330.126 354.341 334.554 352.513C338.995 350.685 339.768 346.772 338.995 343.902C338.21 341.031 330.383 331.905 327.513 331.905C324.643 331.905 317.074 336.075 315.774 338.431C314.473 340.774 310.303 341.301 310.56 344.172Z" fill="white" stroke="#263238" stroke-miterlimit="10"/>
<path d="M347.864 431.818C347.864 431.818 346.036 435.989 349.164 437.032C352.292 438.074 365.602 438.074 366.902 440.417C368.202 442.76 376.556 455.812 377.599 460.241C378.641 464.681 382.812 465.724 384.382 464.939C385.952 464.154 389.08 455.812 389.596 450.587C390.123 445.373 387.768 432.321 386.983 428.15C386.198 423.98 381.5 411.198 380.199 408.327C378.899 405.457 376.814 399.458 369.245 401.544C361.676 403.629 358.806 407.027 358.291 407.8C357.763 408.585 352.807 411.713 352.807 411.713C352.807 411.713 351.777 427.647 347.864 431.818Z" fill="#92E3A9" stroke="#263238" stroke-miterlimit="10"/>
<path d="M384.395 464.951C385.965 464.166 389.093 455.825 389.608 450.599C390.135 445.385 387.78 432.334 386.995 428.163C386.21 423.992 381.512 411.21 380.212 408.34C378.997 405.665 377.096 400.28 370.717 401.249C374.716 407.996 383.278 423.281 384.848 432.996C386.762 444.784 383.953 460.106 382.162 465.062C383.057 465.258 383.867 465.209 384.395 464.951Z" fill="#263238" stroke="#263238" stroke-miterlimit="10"/>
<path d="M352.574 437.657C352.574 437.657 357.101 428.15 358.916 425.206C360.732 422.262 365.258 422.042 365.025 425.881C364.804 429.733 361.173 438.332 361.173 438.332L352.574 437.657Z" fill="#263238"/>
<path d="M380.212 408.34C378.911 405.469 376.826 399.471 369.257 401.556C362.927 403.298 359.898 405.947 358.769 407.236C359.726 410.29 361.198 413.7 363.418 415.92C368.264 420.766 373.121 418.57 377.083 426.065C381.046 433.56 378.408 436.651 381.046 443.705C382.763 448.268 386.688 451.347 389.24 452.966C389.399 452.145 389.534 451.347 389.608 450.623C390.135 445.41 387.78 432.358 386.995 428.187C386.21 423.992 381.524 411.21 380.212 408.34Z" stroke="#263238" stroke-miterlimit="10"/>
<path d="M242.479 395.815C242.479 395.815 251.876 416.681 257.874 418.509C263.873 420.337 338.737 425.035 338.737 425.035L351.519 428.42L352.82 411.725L335.082 409.112L304.034 398.416C304.034 398.416 294.638 393.717 288.639 392.932C282.641 392.147 272.472 392.932 272.472 392.932L270.901 384.849L242.479 395.815Z" fill="#B5B5B5" stroke="#263238" stroke-miterlimit="10"/>
<path d="M267.258 402.599C267.258 402.599 271.699 410.682 275.87 412.253C280.04 413.823 289.952 413.553 289.952 413.553" stroke="#263238" stroke-miterlimit="10"/>
<path d="M342.123 410.167C342.123 410.167 341.338 413.553 340.553 418.521C339.768 423.489 338.725 425.047 338.725 425.047C338.725 425.047 338.198 428.702 343.423 430.53C348.637 432.358 353.335 430.003 354.378 426.875C355.42 423.747 356.72 414.62 355.163 412.265C353.605 409.91 343.951 409.382 342.123 410.167Z" fill="white" stroke="#263238" stroke-miterlimit="10"/>
<path d="M249.52 180.36C249.52 180.36 258.929 176.986 264.609 177.342C270.288 177.698 285.192 183.549 287.143 184.089C289.093 184.616 291.939 183.917 292.822 186.039C293.706 188.174 293.89 192.246 293.706 193.669C293.534 195.092 301.691 212.658 301.52 219.221C301.348 225.784 278.63 250.808 272.766 256.844C266.915 262.879 269.037 272.999 270.104 276.017C271.171 279.034 272.055 281.169 271.171 282.408C270.288 283.647 264.425 285.07 255.556 286.493C246.687 287.916 239.057 291.816 228.937 292.344C218.816 292.871 215.271 298.551 214.204 296.245C213.137 293.939 212.425 288.259 214.032 284.53C215.627 280.801 217.05 255.96 219.184 244.957C221.319 233.954 224.508 222.95 225.931 218.694C227.354 214.437 234.628 200.772 240.308 192.246C245.963 183.721 249.52 180.36 249.52 180.36Z" fill="#92E3A9" stroke="#263238" stroke-miterlimit="10"/>
<path d="M239.793 288.308C239.891 287.462 239.78 286.812 239.682 286.247C239.474 285.008 239.192 283.303 242.491 276.152C247.19 265.97 260.291 223.441 260.855 221.638L256.979 220.448C256.844 220.89 243.399 264.523 238.811 274.459C235.278 282.113 235.303 284.628 235.683 286.91C235.757 287.364 235.794 287.584 235.757 287.867C235.61 289.191 234.825 289.793 234.825 289.793L233.414 290.737L233.88 291.804C235.671 291.51 237.401 291.142 239.081 290.725C239.412 290.05 239.695 289.265 239.793 288.308Z" fill="#263238"/>
<path d="M247.153 274.447C243.62 282.101 243.644 284.616 244.025 286.898C244.098 287.351 244.135 287.572 244.098 287.854C244 288.688 243.657 289.24 243.411 289.535C244.994 289.081 246.564 288.615 248.134 288.173C248.208 287.388 248.11 286.775 248.011 286.235C247.803 284.996 247.521 283.291 250.821 276.139C255.519 265.958 268.62 223.429 269.184 221.625L265.308 220.436C265.185 220.877 251.741 264.51 247.153 274.447Z" fill="#263238"/>
<path d="M293.706 193.669C293.877 192.246 293.706 188.161 292.822 186.039C291.939 183.905 289.093 184.616 287.143 184.089C285.192 183.561 270.288 177.698 264.609 177.342C258.929 176.986 249.52 180.36 249.52 180.36C249.52 180.36 246.564 183.181 241.743 190.124L241.179 202.256C241.179 202.256 236.738 217.651 242.479 229.648C248.22 241.645 264.915 248.686 276.912 244.773C280.887 243.473 284.922 241.449 288.652 238.971C295.337 230.899 301.421 222.595 301.52 219.209C301.691 212.658 293.534 195.08 293.706 193.669Z" fill="#263238" stroke="#263238" stroke-miterlimit="10"/>
<path d="M277.207 186.444C277.207 186.444 296.036 205.482 297.288 212.597C298.539 219.712 284.947 227.661 281.181 228.495C277.415 229.329 271.343 229.157 271.343 229.157L277.207 186.444Z" fill="#7D7D7D" stroke="#263238" stroke-miterlimit="10"/>
<path d="M215.872 295.644C215.872 295.644 222.128 329.034 220.828 341.031C219.528 353.028 216.388 377.034 220.301 379.12C224.214 381.205 232.298 384.076 233.61 385.118C234.91 386.161 240.651 398.428 240.909 399.728C241.167 401.028 250.821 397.385 265.958 390.859C265.958 390.859 273.527 386.419 273.784 384.861C274.042 383.29 274.042 372.864 274.042 372.864C274.042 372.864 277.955 368.693 277.697 366.338C277.44 363.995 276.655 353.813 276.655 352.513C276.655 351.213 279.525 333.205 280.04 316.78C280.568 300.342 269.871 283.389 267.786 282.089C265.7 280.789 220.043 290.7 218.743 291.485C217.43 292.258 215.602 291.473 215.872 295.644Z" fill="#92E3A9" stroke="#263238" stroke-miterlimit="10"/>
<path d="M225.87 353.408C228.262 365.271 232.187 383.892 233.598 385.131" stroke="#263238" stroke-miterlimit="10"/>
<path d="M223.956 343.644C223.956 343.644 224.361 345.803 225.023 349.127" stroke="#263238" stroke-miterlimit="10"/>
<path d="M273.784 384.861C274.042 383.29 274.042 372.864 274.042 372.864C274.042 372.864 277.955 368.693 277.697 366.338C277.538 364.89 277.182 360.474 276.925 356.99C276.238 355.874 275.477 355.052 274.569 354.598C271.441 353.028 271.184 360.082 271.184 360.082C271.184 360.082 260.745 348.87 253.703 357.739C248.048 364.866 248.784 388.614 249.287 397.716C253.519 396.134 259.187 393.791 265.958 390.871C265.958 390.859 273.514 386.431 273.784 384.861Z" fill="#263238" stroke="#263238" stroke-miterlimit="10"/>
<path d="M258.696 320.447C252.452 305.261 248.159 295.288 246.699 291.927C247.312 291.13 247.95 289.94 248.134 288.32C248.232 287.474 248.122 286.824 248.024 286.26C247.962 285.916 247.901 285.536 247.913 285.021C246.589 285.278 245.239 285.548 243.89 285.83C243.914 286.211 243.963 286.579 244.025 286.934C244.098 287.388 244.135 287.609 244.098 287.891C243.951 289.216 243.154 289.817 243.166 289.817L241.755 290.762L242.442 292.319C242.491 292.43 247.214 303.212 254.942 322.018C262.302 339.939 264.142 356.892 264.707 378.433C264.854 383.928 264.817 388.173 264.694 391.436C265.111 391.252 265.529 391.08 265.958 390.896C265.958 390.896 267.27 390.123 268.816 389.117C268.877 386.149 268.877 382.591 268.767 378.322C268.203 356.892 266.277 338.872 258.696 320.447Z" fill="#263238"/>
<path d="M260.315 393.263C260.511 389.645 260.585 384.787 260.413 378.286C259.849 356.892 257.923 338.872 250.354 320.435C244.111 305.249 239.817 295.276 238.357 291.915C238.971 291.117 239.609 289.927 239.793 288.308C239.866 287.658 239.817 287.131 239.744 286.664C238.394 286.947 237.069 287.229 235.757 287.499C235.769 287.621 235.769 287.744 235.757 287.867C235.61 289.191 234.825 289.792 234.825 289.792L233.414 290.737L234.101 292.295C234.15 292.405 238.873 303.188 246.601 321.993C253.961 339.915 255.801 356.868 256.365 378.408C256.574 386.185 256.414 391.472 256.157 395.005C257.469 394.453 258.855 393.877 260.315 393.263Z" fill="#263238"/>
<path d="M233.107 320.386C234.69 321.968 236.407 323.563 238.308 325.121" stroke="#263238" stroke-miterlimit="10"/>
<path d="M218.473 298.514C218.473 298.514 221.331 307.101 229.795 316.829" stroke="#263238" stroke-miterlimit="10"/>
<path d="M272.128 336.382C273.011 337.952 273.686 339.436 274.042 340.774" stroke="#263238" stroke-miterlimit="10"/>
<path d="M248.735 309.996C248.735 309.996 263.37 323.097 270.509 333.769" stroke="#263238" stroke-miterlimit="10"/>
<path d="M240.725 237.119C242.724 245.423 246.441 256.23 253.176 264.081" stroke="#263238" stroke-miterlimit="10"/>
<path d="M238.566 224.692C238.566 224.692 238.836 227.894 239.756 232.666" stroke="#263238" stroke-miterlimit="10"/>
<path d="M236.481 255.212C236.481 255.212 243.522 268.779 257.874 273.208" stroke="#263238" stroke-miterlimit="10"/>
<path d="M229.071 370.84L218.534 365.062C218.178 372.25 218.448 378.138 220.301 379.12C223.613 380.886 229.906 383.205 232.555 384.517L229.071 370.84Z" fill="#263238"/>
<path d="M325.17 332.69C325.17 332.69 337.952 351.213 340.565 351.213C343.178 351.213 354.132 341.301 354.132 341.301C354.132 341.301 372.913 339.216 374.741 339.216C376.568 339.216 384.137 341.829 387.265 341.301C390.393 340.774 390.393 334.775 389.093 332.69C387.792 330.604 372.655 320.693 364.829 318.08C357.003 315.467 339.007 307.126 334.567 309.726C330.126 312.339 330.396 315.209 330.396 319.123C330.396 323.036 329.611 325.906 329.353 326.691C329.083 327.476 325.17 330.077 325.17 332.69Z" fill="#92E3A9" stroke="#263238" stroke-miterlimit="10"/>
<path d="M364.829 318.08C357.003 315.467 339.007 307.126 334.567 309.726C332.322 311.051 331.279 312.437 330.801 314.007C332.199 316.338 334.959 318.902 340.418 320.337C352.133 323.44 356.61 320.337 361.774 325.158C366.939 329.979 378.997 333.426 385.548 336.186C387.228 336.897 388.59 337.67 389.682 338.431C390.16 336.419 389.853 333.892 389.093 332.69C387.78 330.604 372.655 320.693 364.829 318.08Z" fill="#263238" stroke="#263238" stroke-miterlimit="10"/>
<path d="M343.963 350.035C343.963 350.035 336.946 342.111 336.039 340.074C335.131 338.038 336.492 335.094 340.798 336.002C345.104 336.91 349.397 345.288 349.397 345.288L343.963 350.035Z" fill="#263238"/>
<path d="M364.829 318.08C357.003 315.467 339.007 307.126 334.567 309.726C330.126 312.339 330.396 315.209 330.396 319.123C330.396 321.588 330.089 323.637 329.795 325.011C332.481 328.028 336.836 331.819 342.258 332.604C351.519 333.929 357.69 330.837 360.327 333.045C362.609 334.947 378.31 340.774 388.529 340.651C390.344 338.934 390.172 334.444 389.08 332.702C387.78 330.604 372.655 320.693 364.829 318.08Z" stroke="#263238" stroke-miterlimit="10"/>
<path d="M271.343 229.157C271.343 229.157 282.702 216.02 283.414 208.745C284.125 201.471 283.585 191.891 275.784 185.5C267.97 179.109 257.678 179.109 249.52 180.348C241.351 181.586 236.567 184.248 236.567 184.248C236.567 184.248 222.374 182.825 213.321 184.776C204.268 186.726 195.926 190.455 195.926 190.455C195.926 190.455 171.258 188.677 163.088 191.339C154.918 194.001 129.011 197.374 127.588 197.374C126.165 197.374 115.161 194.54 113.751 194.001C112.34 193.461 105.765 189.744 105.581 187.61C105.409 185.475 104.158 183.525 102.563 186.187C100.969 188.848 102.563 191.694 103.275 192.578C103.986 193.461 105.053 194.712 105.409 195.239C105.765 195.767 100.797 197.73 100.797 197.73C100.797 197.73 86.7758 197.202 86.2483 197.202C85.7209 197.202 84.2979 198.981 84.8254 199.692C85.3529 200.404 86.7758 200.76 86.7758 200.76L100.613 201.643C100.613 201.643 86.2361 206.083 86.0643 206.611C85.8926 207.138 86.0643 208.917 87.3033 209.273C88.5422 209.629 87.475 209.984 88.5422 209.629C89.6095 209.273 102.208 207.322 102.208 207.322C102.208 207.322 97.4112 211.407 96.0005 212.646C94.5775 213.885 90.1492 216.903 90.8484 218.142C91.5599 219.381 92.2714 220.092 93.6821 219.209C95.105 218.326 105.041 212.462 105.041 212.462C105.041 212.462 105.569 214.768 105.041 215.836C104.514 216.903 100.785 220.632 99.7174 221.515C98.6501 222.398 100.245 225.06 101.852 224.177C103.446 223.294 108.77 216.719 109.31 215.836C109.838 214.952 114.278 214.768 117.823 214.057C121.368 213.345 127.048 210.683 127.048 210.683C127.048 210.683 164.499 213.517 174.251 212.278C184.015 211.039 195.19 209.445 195.19 209.445C195.19 209.445 226.962 209.972 235.119 209.8C243.289 209.629 248.257 208.206 248.257 208.206C248.257 208.206 247.19 216.375 255.359 222.043C263.541 227.734 271.343 229.157 271.343 229.157Z" fill="#B5B5B5" stroke="#263238" stroke-miterlimit="10"/>
<path d="M250.759 207.335L261.407 205.384C261.407 205.384 268.325 208.574 268.509 209.285" stroke="#263238" stroke-miterlimit="10"/>
<path d="M163.714 191.179C165.492 195.534 167.553 202.919 166.768 212.622C169.896 212.622 172.534 212.536 174.275 212.315C177.992 211.837 181.905 211.321 185.34 210.855C186.162 205.507 186.714 197.19 184.126 189.965C176.937 189.781 168.289 189.916 163.714 191.179Z" fill="white" stroke="#263238" stroke-miterlimit="10"/>
<path d="M187.425 200.293C187.425 200.293 190.492 200.073 192.246 201.164C194 202.256 197.067 202.035 199.263 199.852" stroke="#263238" stroke-miterlimit="10"/>
<path d="M166.376 200.073H158.267" stroke="#263238" stroke-miterlimit="10"/>
<path d="M239.817 188.898C239.817 188.898 246.392 197.227 254.292 199.202" stroke="#263238" stroke-miterlimit="10"/>
</svg>
