<?xml version="1.0" encoding="utf-8"?>
<!-- Generator: Adobe Illustrator 27.3.1, SVG Export Plug-In . SVG Version: 6.00 Build 0)  -->
<svg version="1.1" id="Camada_1" xmlns="http://www.w3.org/2000/svg" xmlns:xlink="http://www.w3.org/1999/xlink" x="0px" y="0px"
	 viewBox="0 0 577.88 170.66" style="enable-background:new 0 0 577.88 170.66;" xml:space="preserve">
<style type="text/css">
	.st0{fill:#7ABF81;}
	.st1{fill:#0697B4;}
</style>
<g>
	<path class="st0" d="M122.88,100.96h0.1c-1.53,5.23-3.06,12.25-4.59,21.08c-1.53,8.83-2.29,15.22-2.29,19.17
		c0,7.33-0.05,12.39-0.14,15.2c-0.1,2.8-0.69,5.1-1.77,6.88c-1.08,1.78-2.49,3.17-4.21,4.16c-1.72,0.99-3.67,1.48-5.83,1.48
		c-3.44,0-6.61-1.21-9.51-3.63c-2.9-2.42-4.35-5.26-4.35-8.51c0-1.08,0.89-5.74,2.68-13.96c1.59-7.33,2.87-13.61,3.82-18.83
		c-21.35,15.81-40.47,23.71-57.36,23.71c-11.41,0-20.48-3.31-27.2-9.94c-6.73-6.63-10.09-15.71-10.09-27.25
		c0-18.23,5.48-35.72,16.44-52.49v0.1c11.66-17.46,25.45-31.23,41.35-41.3c15.9-10.07,31.79-15.1,47.66-15.1
		c8.22,0,14.72,1.51,19.5,4.54c4.78,3.03,7.17,6.87,7.17,11.52c0,3.89-1.64,8.19-4.92,12.91c-3.28,4.72-6.58,7.07-9.9,7.07
		c-2.1,0-3.67-0.43-4.68-1.29c-1.02-0.86-2.07-2.56-3.15-5.11c-1.21-2.87-2.6-4.89-4.16-6.07c-1.56-1.18-3.84-1.77-6.84-1.77
		c-9.69,0-20.76,4.77-33.22,14.29c-12.46,9.53-22.56,20.81-30.31,33.84c-7.74,13.03-11.62,25.48-11.62,37.33
		c0,12.49,5.35,18.74,16.06,18.74c5.54,0,12.17-1.43,19.89-4.3c7.71-2.87,15.93-7.36,24.67-13.48c8.73-6.12,13.97-11.69,15.73-16.73
		c1.75-5.03,3.07-10.58,3.97-16.63c0.51-3.57,1.83-5.94,3.97-7.12c2.13-1.18,5.02-1.77,8.65-1.77c8.35,0,12.52,2.84,12.52,8.51
		c0,2.23-1.08,5.86-3.25,10.9C125.94,90.92,124.35,95.54,122.88,100.96z"/>
	<path class="st1" d="M178.23,100.77l1.62-3.06c7.71-15.49,16.01-28.06,24.9-37.71c8.89-9.66,17.57-14.48,26.05-14.48
		c6.5,0,11.81,1.79,15.92,5.35c4.11,3.57,6.17,7.81,6.17,12.71c0,3.06-0.7,5.69-2.1,7.89c-1.4,2.2-3.35,3.3-5.83,3.3
		c-3.95,0-7.55-1.63-10.8-4.88c-2.29-2.1-4.11-3.15-5.45-3.15c-4.78,0-12.78,7.43-24,22.28c-11.22,14.85-17.97,31.55-20.27,50.1
		c-0.7,5.35-2.26,9.1-4.68,11.23c-2.42,2.13-5.71,3.2-9.85,3.2c-4.4,0-7.52-2.5-9.37-7.5c-1.85-5-2.77-13.18-2.77-24.52
		c0-4.65,0.13-10.93,0.38-18.83c0.25-7.46,0.99-16.57,2.2-27.34c0.32-2.8,0.54-5,0.67-6.6c0.57-6.25,1.23-10.53,1.96-12.86
		c0.73-2.33,2.44-4.51,5.11-6.55c2.68-2.04,5.64-3.06,8.89-3.06c3.44,0,6.05,0.99,7.84,2.96c1.78,1.98,2.68,4.14,2.68,6.5
		c0,3-1.43,9.21-4.3,18.64c-1.02,3.25-1.88,7.14-2.58,11.66L178.23,100.77z"/>
	<path class="st1" d="M340.18,115.3c0,6.63-5.58,14.55-16.73,23.76c-11.15,9.21-23.74,13.81-37.76,13.81
		c-10.77,0-19.25-3.39-25.43-10.18c-6.18-6.79-9.27-16.24-9.27-28.35c0-17.84,6.31-34.58,18.93-50.19
		c12.62-15.61,26.1-23.42,40.44-23.42c7.14,0,12.87,2.26,17.21,6.79c4.33,4.53,6.5,9.91,6.5,16.16c0,11.09-5.32,21.65-15.96,31.69
		c-10.64,10.04-24.28,16.97-40.92,20.79c-1.91,0.45-2.87,1.59-2.87,3.44c0,3.06,1.35,5.98,4.06,8.75c2.71,2.77,6.32,4.16,10.85,4.16
		c12.81,0,25.53-6.6,38.15-19.79c2.42-2.55,4.78-3.82,7.07-3.82C338.27,108.89,340.18,111.03,340.18,115.3z M276.04,98.38
		c10.07-2.04,18.94-6.34,26.63-12.91c7.68-6.56,11.52-12.52,11.52-17.88c0-2.1-0.59-3.87-1.77-5.31c-1.18-1.43-2.69-2.15-4.54-2.15
		c-5.54,0-11.7,4.08-18.45,12.24C282.66,80.53,278.2,89.2,276.04,98.38z"/>
	<path class="st1" d="M441.62,115.3c0,6.63-5.58,14.55-16.73,23.76c-11.15,9.21-23.74,13.81-37.76,13.81
		c-10.77,0-19.25-3.39-25.43-10.18c-6.18-6.79-9.27-16.24-9.27-28.35c0-17.84,6.31-34.58,18.93-50.19
		c12.62-15.61,26.1-23.42,40.44-23.42c7.14,0,12.87,2.26,17.21,6.79c4.33,4.53,6.5,9.91,6.5,16.16c0,11.09-5.32,21.65-15.96,31.69
		c-10.65,10.04-24.28,16.97-40.92,20.79c-1.91,0.45-2.87,1.59-2.87,3.44c0,3.06,1.35,5.98,4.06,8.75c2.71,2.77,6.32,4.16,10.85,4.16
		c12.81,0,25.53-6.6,38.15-19.79c2.42-2.55,4.78-3.82,7.07-3.82C439.71,108.89,441.62,111.03,441.62,115.3z M377.47,98.38
		c10.07-2.04,18.94-6.34,26.62-12.91c7.68-6.56,11.52-12.52,11.52-17.88c0-2.1-0.59-3.87-1.77-5.31c-1.18-1.43-2.69-2.15-4.54-2.15
		c-5.54,0-11.7,4.08-18.45,12.24C384.1,80.53,379.64,89.2,377.47,98.38z"/>
	<path class="st1" d="M537.79,134.23c-3.06-5.74-5.29-16.44-6.69-32.12c-1.4-16.32-4.53-24.47-9.37-24.47
		c-4.59,0-12.52,8.49-23.8,25.48c-11.28,16.99-18.23,29.53-20.84,37.62c-0.57,2.42-1.64,4.43-3.2,6.02
		c-1.56,1.59-3.11,2.39-4.64,2.39c-9.69,0-14.53-4.43-14.53-13.29c0-3,0.96-9.81,2.87-20.46c2.49-13.77,3.73-30.59,3.73-50.48
		c0-3,1.31-6.2,3.92-9.61c2.61-3.41,5.38-5.11,8.32-5.11c3.7,0,6.53,0.92,8.51,2.77c1.97,1.85,2.96,6.76,2.96,14.72
		c0,6.06-1.82,17.78-5.45,35.18c13.83-32.38,29.25-48.57,46.27-48.57c14.79,0,23.45,11.63,26,34.9c2.55,23.71,5.48,35.56,8.8,35.56
		c1.46,0,3.15-0.32,5.07-0.96c2.29-0.77,4.11-1.15,5.45-1.15c3.06,0,4.59,1.79,4.59,5.35c0,3.25-2.1,6.71-6.31,10.37
		c-4.21,3.67-9.5,5.5-15.87,5.5c-7.39,0-12.68-3.22-15.87-9.66H537.79z"/>
</g>
</svg>
