<svg width="32" height="31" viewBox="0 0 32 31" fill="none" xmlns="http://www.w3.org/2000/svg">
<path d="M17.6448 0.00190705C18.8123 -0.00243315 19.9799 0.00893434 21.147 0.036006L21.4574 0.0468556C21.8158 0.0592552 22.1694 0.0747546 22.5966 0.093354C24.2989 0.170851 25.4604 0.431243 26.4796 0.81408C27.5355 1.20777 28.4251 1.74095 29.3146 2.60272C30.128 3.37708 30.7575 4.31378 31.1593 5.34768C31.5545 6.33499 31.8233 7.4618 31.9033 9.11095C31.9225 9.52323 31.9385 9.86732 31.9513 10.2145L31.9609 10.5152C31.9893 11.6454 32.0016 12.7759 31.9977 13.9065L31.9993 15.0627V17.0932C32.0032 18.2242 31.991 19.3553 31.9625 20.486L31.9529 20.7867C31.9401 21.1339 31.9241 21.4764 31.9049 21.8903C31.8249 23.5394 31.5529 24.6647 31.1593 25.652C30.7588 26.687 30.1291 27.6244 29.3146 28.3985C28.5146 29.1864 27.5472 29.7962 26.4796 30.1856C25.4604 30.5684 24.2989 30.8288 22.5966 30.9063C22.1694 30.9249 21.8158 30.9404 21.4574 30.9528L21.147 30.9621C19.9799 30.9897 18.8123 31.0015 17.6448 30.9978L16.4513 30.9993H14.357C13.1895 31.0031 12.0219 30.9912 10.8548 30.9637L10.5444 30.9544C10.1646 30.941 9.78486 30.9255 9.40524 30.9079C7.70293 30.8304 6.54139 30.5669 5.52064 30.1856C4.45299 29.7971 3.48592 29.1871 2.68719 28.3985C1.8729 27.624 1.24282 26.6867 0.84088 25.652C0.4457 24.6647 0.176914 23.5394 0.0969181 21.8903C0.0790997 21.5225 0.0631004 21.1546 0.0489206 20.7867L0.0409213 20.486C0.0114245 19.3553 -0.00190958 18.2242 0.000923154 17.0932V13.9065C-0.00354216 12.776 0.00819182 11.6454 0.0361215 10.5152L0.0473208 10.2145C0.0601202 9.86732 0.0761193 9.52323 0.0953183 9.11095C0.175314 7.46025 0.4441 6.33654 0.83928 5.34768C1.24146 4.31327 1.87277 3.37683 2.68879 2.60427C3.48698 1.81496 4.45343 1.204 5.52064 0.81408C6.54139 0.431243 7.70133 0.170851 9.40524 0.093354L10.5444 0.0468556L10.8548 0.039106C12.0214 0.0105449 13.1884 -0.00237274 14.3554 0.000357213L17.6448 0.00190705ZM16.0001 7.75164C14.9402 7.73712 13.8878 7.92682 12.9042 8.30973C11.9206 8.69263 11.0254 9.2611 10.2705 9.9821C9.5157 10.7031 8.91631 11.5622 8.50719 12.5096C8.09807 13.457 7.88738 14.4737 7.88738 15.5006C7.88738 16.5275 8.09807 17.5442 8.50719 18.4916C8.91631 19.439 9.5157 20.2981 10.2705 21.0191C11.0254 21.7401 11.9206 22.3086 12.9042 22.6915C13.8878 23.0744 14.9402 23.2641 16.0001 23.2496C18.1217 23.2496 20.1565 22.4331 21.6567 20.9797C23.1569 19.5264 23.9997 17.5552 23.9997 15.4998C23.9997 13.4445 23.1569 11.4733 21.6567 10.0199C20.1565 8.56658 18.1217 7.75164 16.0001 7.75164ZM16.0001 10.8515C16.6377 10.8402 17.2712 10.952 17.8637 11.1804C18.4562 11.4089 18.9957 11.7495 19.4508 12.1822C19.9059 12.615 20.2674 13.1313 20.5142 13.7009C20.761 14.2705 20.8882 14.882 20.8883 15.4998C20.8884 16.1176 20.7614 16.7292 20.5148 17.2989C20.2682 17.8686 19.9068 18.385 19.4519 18.8179C18.997 19.2508 18.4576 19.5915 17.8652 19.8202C17.2728 20.0488 16.6393 20.1608 16.0017 20.1497C14.7287 20.1497 13.5079 19.6598 12.6078 18.7878C11.7076 17.9158 11.2019 16.733 11.2019 15.4998C11.2019 14.2666 11.7076 13.0839 12.6078 12.2119C13.5079 11.3399 14.7287 10.85 16.0017 10.85L16.0001 10.8515ZM24.3997 5.42672C23.8835 5.44674 23.3954 5.65945 23.0375 6.02031C22.6796 6.38117 22.4798 6.86218 22.4798 7.36261C22.4798 7.86303 22.6796 8.34405 23.0375 8.70491C23.3954 9.06577 23.8835 9.27848 24.3997 9.29849C24.9301 9.29849 25.4388 9.09437 25.8138 8.73103C26.1889 8.36769 26.3996 7.8749 26.3996 7.36106C26.3996 6.84722 26.1889 6.35442 25.8138 5.99108C25.4388 5.62774 24.9301 5.42362 24.3997 5.42362V5.42672Z" fill="#969696"/>
</svg>
